<svg xmlns="http://www.w3.org/2000/svg" width="512" height="512" data-name="Layer 1"><defs><clipPath id="a"><rect width="437" height="312" x="36.7" y="85.2" rx="7" ry="7" style="fill:none;stroke-width:0"/></clipPath></defs><path d="M382.6 241.3c-2.4-.2-8.4-1-12-1-2.5 0-5-.3-7.2-.2a13 13 0 0 0-5 1c-1 .6-2 1.3-3.1 1.6-4 1-8 2.6-12 4-3.8 1.2-7.7 2.6-11.6 3.4-1 .3-2 .5-3 1a36 36 0 0 0-9.5 7.3l-8.3 9c-1.7 1.6-3.2 3.5-5 5-2 2-3.6 4-5.3 6-2 2.6-4.2 4.9-6.6 6.9l-15.8 12c-1 1-1.8 2-2.2 3.4l-.6 2.8a37 37 0 0 1-3.3 11.3l-3.6 7.4c-2.5 5-4.4 10.4-6.7 15.6l-6.5 15.6c-1.5 3.5-3.3 6.7-4.5 10.3-1.6 5-4 9.7-6.7 14-2.6 4.2-5.7 8-8.8 11.7-4.3 5-9 9.8-13.5 14.7-3 3.2-6.1 6.5-9 9.9a70.9 70.9 0 0 1-5.1 5.3c-1.4 1.2-3 2-4.4 3-2.7 1.9-5 4-7.5 6l-9 8.2-9 8.5-8.3 7.9-7 6.7-6.2 6.3-6.8 6.8-7.3 7.7-9.8 10-9.7 10-10.8 11-10.8 11 101.2-4.1 5.7-6.5 13.3-15 7.5-8.4 6-7c2-2.4 4.4-4.8 6.6-7.2l11-11.8 5.9-6.4c2.4-2.5 4.8-5 7-7.7 3.5-4.3 7.6-8 12.5-10.4 1.6-.8 3-1.8 4.6-2.7a5 5 0 0 0 2.3-2.2c.4-.8 1-1.4 1.8-2l1.9-1.1c1.7-1 3-2.4 3.8-4.2a6 6 0 0 1 1.8-2.4c.6-.6 1.2-1.2 1.6-2 1.5-2 3-4 4.3-6.1.8-1.2 1.8-2.3 2.5-3.5 1.5-2.8 3.4-5.2 5.3-7.7l2.8-4.4 2.8-6.2c.6-1.3 1.6-2.4 2.3-3.6l3.8-7c1.2-2.4 2.5-4.7 3.2-7.2.2-1 .7-1.8 1.2-2.6.6-1 1.6-1.7 2.4-2.6L335 359a5 5 0 0 1 1.9-1.6l10.8-5.7c2.5-1.2 5.3-2 8-2.5l4.7-.6c3-.5 6-1.3 8.6-3a13 13 0 0 1 5.6-2.2c3-.6 6-1.3 9-2.6l4-2c1.9-.7 3-2.2 4-4a4 4 0 0 0-.2-4.4c-.8-1.3-2-2.2-3.3-3a2 2 0 0 0-1-.1c-2.8 0-5.5 0-8 1h-.8c-2.4.3-4.7.6-7 1.4h-.8c-.2-.2 0-.4 0-.5 1-1.2 2-2 3.3-2.8.8-.5 1.4-1 2-1.8 1.2-1.7 2.5-3.4 4-5 2.3-2.4 4.9-4.8 7-7.5 1.6-1.6 2.4-3.5 2.8-5.6a7 7 0 0 0-1-5.2 12 12 0 0 0-6.3-4.8c-2.6-1-5-1-7.5 0l-2.1 1c-6 2.8-11.8 6-18 8.6a26 26 0 0 0-10.7 8c-.6.7-1.4 1.2-2.3 1.6l-5.2 3c-3.2 1.7-6.5 3.2-9.7 5-.7.4-1 .2-1.3-.5a3 3 0 0 1-.1-1.3c0-1.2.5-2.3 1.3-3.3s1.5-2 2-3.2c1.2-2.7 2-5.5 2.3-8.5 0-1 .5-1.5 1.3-2l3.3-1.5c5.2-2.3 10.2-5 14.8-8.3.8-1 1.8-1.1 2.9-1h2c4.5-1 9-1.5 13.5-3 1.6-.3 3.2-.7 4.9-.7 1.3 0 2.4-.4 3.6-1a8.7 8.7 0 0 0 5-6.6 4 4 0 0 0 0-2c-.8-2.2-3.2-5.4-7-5-2.8.2-5.6.6-8.3 1h-3c-2.3 0-4.6-.3-7-.2-3.3 0-6.6.6-9.8 1.8-3.7 1.4-7.4 2.9-11.2 4l-3.6.9c-1 .2-1.4-.3-1.3-1.3 0-.6.2-1.2.6-1.7a11 11 0 0 1 4.5-3.4c1.5-.6 2.7-1.4 4-2.3 1.9-1.4 3.6-3.1 6-3.6l.4-.2c2-1.3 4-2.6 5.7-4.1.7-.7 1.6-1 2.5-1.4 2.3-.8 4.6-1 7-1.3l1.3-.3c2-.8 4-1.6 6.3-2.1 3.6-1 7-2.1 10.7-2.8 2-.4 3.6-1 4.8-2l4.7-4.2c1.9-1.7 2.8-3.6 3.2-5s-.8-3.3-2.7-4.3-5-1.8-7.5-2v-.1Z" style="fill:none;stroke:#333;stroke-miterlimit:10;stroke-width:19px"/><rect width="451.9" height="329.3" x="29.7" y="76" rx="4" ry="4" style="fill:none;stroke-width:0"/><path d="M473.7 84v313.3h-436V84h436m4-16h-444a12 12 0 0 0-12 12v321.3a12 12 0 0 0 12 12h444a12 12 0 0 0 12-12V80a12 12 0 0 0-12-12Z" style="fill:#333;stroke-width:0"/><rect width="441" height="316" x="34.7" y="83.2" rx="10" ry="10" style="fill:#51b05a;stroke-width:0"/><path d="M465.7 85.2a8 8 0 0 1 8 8v296a8 8 0 0 1-8 8h-421a8 8 0 0 1-8-8v-296a8 8 0 0 1 8-8h421m0-4h-421a12 12 0 0 0-12 12v296a12 12 0 0 0 12 12h421a12 12 0 0 0 12-12v-296a12 12 0 0 0-12-12Z" style="fill:#333;stroke-width:0"/><g style="clip-path:url(#a)"><g style="opacity:.96"><path d="M57 100h122.6a9 9 0 1 1 0 18.2H57a9 9 0 1 1 0-18.2Z" style="fill:#e6e6e6;stroke-width:0"/></g><g style="opacity:.84"><rect width="175.6" height="77.8" x="48.1" y="134.4" rx="10" ry="10" style="fill:#beb3be;stroke-width:0"/></g><g style="opacity:.83"><rect width="233.6" height="41.2" x="48.1" y="225" rx="8.9" ry="8.9" style="fill:#c7bebe;stroke-width:0"/></g><g style="opacity:.91"><rect width="213.6" height="41.5" x="48.1" y="278.7" rx="7" ry="7" style="fill:#b3bab3;stroke-width:0"/></g><g style="opacity:.91"><rect width="233.6" height="71.8" x="48.1" y="333.4" rx="7.1" ry="7.1" style="fill:#bab3ba;stroke-width:0"/></g></g><rect width="156.5" height="99" x="295.7" y="106.7" rx="12" ry="12" style="fill:#fbce3b;stroke-width:0"/><path d="M382 241.3c-2.3-.2-8.3-1-12-1-2.4 0-4.8-.3-7.1-.2a13 13 0 0 0-5 1c-1 .6-2 1.3-3.1 1.6-4 1-8 2.6-12 4-3.8 1.2-7.7 2.6-11.6 3.4-1 .3-2 .5-3 1a36 36 0 0 0-9.5 7.3l-8.3 9c-1.7 1.6-3.2 3.5-5 5-2 2-3.6 4-5.3 6-2 2.6-4.2 4.9-6.6 6.9l-15.8 12c-1 1-1.8 2-2.2 3.4l-.6 2.8a37 37 0 0 1-3.3 11.3l-3.6 7.4c-2.5 5-4.4 10.4-6.7 15.6l-6.5 15.6c-1.5 3.5-3.3 6.7-4.5 10.3-1.6 5-4 9.7-6.7 14-2.6 4.2-5.7 8-8.8 11.7-4.3 5-9 9.8-13.5 14.7-3 3.2-6.1 6.5-9 9.9a70.9 70.9 0 0 1-5.1 5.3c-1.4 1.2-3 2-4.4 3-2.7 1.9-5 4-7.5 6l-9 8.2-9 8.5-8.3 7.9-7 6.7-6.2 6.3-6.8 6.8-7.3 7.7-9.8 10-9.7 10-10.8 11-10.8 11 101.2-4.1 5.7-6.5 13.3-15 7.5-8.4 6-7c2-2.4 4.4-4.8 6.6-7.2l11-11.8 5.9-6.4c2.4-2.5 4.8-5 7-7.7 3.5-4.3 7.6-8 12.5-10.4 1.6-.8 3-1.8 4.6-2.7a5 5 0 0 0 2.3-2.2c.4-.8 1-1.4 1.8-2l1.9-1.1c1.7-1 3-2.4 3.8-4.2a6 6 0 0 1 1.8-2.4c.6-.6 1.2-1.2 1.6-2 1.5-2 3-4 4.3-6.1.8-1.2 1.8-2.3 2.5-3.5 1.5-2.8 3.4-5.2 5.3-7.7l2.8-4.4 2.8-6.2c.6-1.3 1.6-2.4 2.3-3.6l3.8-7c1.2-2.4 2.5-4.7 3.2-7.2.2-1 .7-1.8 1.2-2.6.6-1 1.6-1.7 2.4-2.6l8.9-11.3a5 5 0 0 1 1.9-1.6l10.8-5.7c2.6-1.2 5.3-2 8-2.5l4.7-.6c3-.5 6-1.3 8.6-3a13 13 0 0 1 5.6-2.2c3-.6 6-1.3 9-2.6l4-2c1.9-.7 3-2.2 4-4a4 4 0 0 0-.2-4.4c-.8-1.3-2-2.2-3.3-3a2 2 0 0 0-1-.1c-2.8 0-5.5 0-8 1h-.8c-2.4.3-4.7.6-7 1.4h-.8c-.2-.2 0-.4 0-.5 1-1.2 2-2 3.3-2.8.8-.5 1.4-1 2-1.8 1.2-1.7 2.5-3.4 4-5 2.3-2.4 4.9-4.8 7-7.5 1.6-1.6 2.4-3.5 2.8-5.6a7 7 0 0 0-1-5.2 12 12 0 0 0-6.3-4.8c-2.6-1-5-1-7.5 0l-2.1 1c-6 2.8-11.8 6-18 8.6a26 26 0 0 0-10.7 8c-.6.7-1.4 1.2-2.3 1.6l-5.2 3c-3.2 1.7-6.5 3.2-9.7 5-.7.4-1 .2-1.3-.5a3 3 0 0 1-.1-1.3c0-1.2.5-2.3 1.3-3.3s1.5-2 2-3.2c1.2-2.7 2-5.5 2.3-8.5 0-1 .5-1.5 1.3-2l3.3-1.5c5.2-2.3 10.2-5 14.8-8.3.8-1 1.8-1.1 2.9-1h2c4.5-1 9-1.5 13.5-3 1.6-.3 3.2-.7 4.9-.7 1.3 0 2.4-.4 3.6-1a8.7 8.7 0 0 0 5-6.6 4 4 0 0 0 0-2c-.8-2.2-3.2-5.4-7-5-2.8.2-5.6.6-8.3 1h-3.1c-2.3 0-4.6-.3-7-.2-3.3 0-6.6.6-9.8 1.8-3.7 1.4-7.4 2.9-11.2 4l-3.6.9c-1 .2-1.4-.3-1.3-1.3 0-.6.2-1.2.6-1.7a11 11 0 0 1 4.5-3.4c1.5-.6 2.7-1.4 4-2.3 1.9-1.4 3.6-3.1 6-3.6l.4-.2c2-1.3 4-2.6 5.7-4.1.7-.7 1.6-1 2.5-1.4 2.3-.8 4.6-1 7-1.3l1.3-.3c2-.8 4-1.6 6.3-2.1 3.6-1 7-2.1 10.7-2.8 2-.4 3.6-1 4.8-2l4.7-4.2c1.9-1.7 2.8-3.6 3.2-5s-.8-3.3-2.7-4.3-5-1.8-7.5-2v-.1Z" style="stroke-width:0"/><g style="opacity:.96"><rect width="111" height="162.5" x="330.6" y="218.4" rx="6.4" ry="6.4" style="fill:#b3bab3;stroke-width:0" transform="rotate(-10 386 299.7)"/></g><path d="M372.8 326.7c.8-.4 1.4-1 2-1.7 1.2-1.7 2.5-3.5 4-5l7-7.5c1.6-1.7 2.4-3.5 2.8-5.6a7 7 0 0 0-1-5.2 12 12 0 0 0-6.3-5 9 9 0 0 0-7.5.3l-2.1.9c-6 2.8-11.8 6-18 8.6a24 24 0 0 0-10.7 8c-.6.7-1.4 1-2.3 1.6l-5.3 2.9c-3.1 1.8-9.6 5-9.6 5l3.8 39.8s5.6-9.4 8.4-13 6.7-7.4 9.3-9.1c1.7-1.2 11-7.3 13-7.7" style="stroke-width:0"/></svg>
